<svg xmlns="http://www.w3.org/2000/svg" viewBox="0 0 64 64" shape-rendering="crispEdges">
  <rect width="64" height="64" fill="#08091c"/>
  <rect x="12" y="16" width="8" height="8" fill="#ff4fb8"/>
  <rect x="20" y="16" width="8" height="8" fill="#ff4fb8"/>
  <rect x="36" y="16" width="8" height="8" fill="#ff4fb8"/>
  <rect x="44" y="16" width="8" height="8" fill="#ff4fb8"/>
  <rect x="8" y="24" width="8" height="8" fill="#ff4fb8"/>
  <rect x="16" y="24" width="8" height="8" fill="#ff78ca"/>
  <rect x="24" y="24" width="8" height="8" fill="#ff78ca"/>
  <rect x="32" y="24" width="8" height="8" fill="#ff78ca"/>
  <rect x="40" y="24" width="8" height="8" fill="#ff78ca"/>
  <rect x="48" y="24" width="8" height="8" fill="#ff4fb8"/>
  <rect x="8" y="32" width="8" height="8" fill="#ff2bd6"/>
  <rect x="16" y="32" width="8" height="8" fill="#ff4fb8"/>
  <rect x="24" y="32" width="8" height="8" fill="#ff4fb8"/>
  <rect x="32" y="32" width="8" height="8" fill="#ff4fb8"/>
  <rect x="40" y="32" width="8" height="8" fill="#ff4fb8"/>
  <rect x="48" y="32" width="8" height="8" fill="#ff2bd6"/>
  <rect x="16" y="40" width="8" height="8" fill="#ff2bd6"/>
  <rect x="24" y="40" width="8" height="8" fill="#ff4fb8"/>
  <rect x="32" y="40" width="8" height="8" fill="#ff4fb8"/>
  <rect x="40" y="40" width="8" height="8" fill="#ff2bd6"/>
  <rect x="24" y="48" width="8" height="8" fill="#ff2bd6"/>
  <rect x="32" y="48" width="8" height="8" fill="#ff2bd6"/>
  <rect x="20" y="20" width="8" height="8" fill="#ffc1e6" opacity="0.9"/>
  <rect x="0" y="0" width="64" height="64" fill="none" stroke="#24f7ff" stroke-width="2" opacity="0.45"/>
</svg>