<svg width="960" height="560" viewBox="0 0 960 560" fill="none" xmlns="http://www.w3.org/2000/svg">
  <rect width="960" height="560" rx="34" fill="#0D1117"/>
  <rect width="960" height="560" rx="34" fill="url(#bg)"/>
  <path d="M0 118H960" stroke="white" stroke-opacity=".06"/>
  <path d="M0 222H960" stroke="white" stroke-opacity=".06"/>
  <path d="M0 326H960" stroke="white" stroke-opacity=".06"/>
  <path d="M0 430H960" stroke="white" stroke-opacity=".06"/>
  <path d="M160 0V560" stroke="white" stroke-opacity=".055"/>
  <path d="M320 0V560" stroke="white" stroke-opacity=".055"/>
  <path d="M480 0V560" stroke="white" stroke-opacity=".055"/>
  <path d="M640 0V560" stroke="white" stroke-opacity=".055"/>
  <path d="M800 0V560" stroke="white" stroke-opacity=".055"/>
  <g filter="url(#shadow)">
    <rect x="134" y="142" width="692" height="276" rx="24" fill="#111827" stroke="white" stroke-opacity=".12"/>
    <rect x="164" y="176" width="282" height="208" rx="18" fill="#090D14" stroke="white" stroke-opacity=".08"/>
    <circle cx="190" cy="205" r="7" fill="#FF5F57"/>
    <circle cx="214" cy="205" r="7" fill="#FFBD2E"/>
    <circle cx="238" cy="205" r="7" fill="#28C840"/>
    <text x="190" y="258" fill="#F9FAFB" font-family="Consolas, monospace" font-size="24" font-weight="700">$ npm run build</text>
    <text x="190" y="310" fill="#93E6B6" font-family="Consolas, monospace" font-size="24" font-weight="700">$ dist ready</text>
    <text x="190" y="362" fill="#FDBA74" font-family="Consolas, monospace" font-size="24" font-weight="700">$ deploy</text>
    <path d="M540 262C551 216 593 181 644 181C694 181 736 215 748 261C790 267 822 303 822 347C822 395 783 434 735 434H547C497 434 456 394 456 344C456 300 487 264 540 262Z" fill="#F6821F"/>
    <path d="M653 226C684 226 711 248 718 278L722 294H739C766 294 788 316 788 343C788 371 766 393 738 393H549C523 393 501 371 501 345C501 318 522 296 549 296H568L572 278C580 248 608 226 653 226Z" fill="#FBBF24" fill-opacity=".72"/>
    <path d="M573 330H706" stroke="#111827" stroke-width="18" stroke-linecap="round"/>
    <path d="M620 286L573 330L620 374" stroke="#111827" stroke-width="18" stroke-linecap="round" stroke-linejoin="round"/>
  </g>
  <text x="88" y="82" fill="#FFFFFF" fill-opacity=".82" font-family="Poppins, Arial, sans-serif" font-size="28" font-weight="800" letter-spacing="3">CLOUDFLARE PAGES</text>
  <text x="88" y="506" fill="#FFFFFF" font-family="Poppins, Arial, sans-serif" font-size="42" font-weight="900">Deploy guide for React + Vite</text>
  <defs>
    <linearGradient id="bg" x1="0" y1="0" x2="960" y2="560" gradientUnits="userSpaceOnUse">
      <stop stop-color="#2A1A0D"/>
      <stop offset=".48" stop-color="#0B1720"/>
      <stop offset="1" stop-color="#221129"/>
    </linearGradient>
    <filter id="shadow" x="104" y="118" width="752" height="356" filterUnits="userSpaceOnUse" color-interpolation-filters="sRGB">
      <feFlood flood-opacity="0" result="BackgroundImageFix"/>
      <feColorMatrix in="SourceAlpha" type="matrix" values="0 0 0 0 0 0 0 0 0 0 0 0 0 0 0 0 0 0 127 0" result="hardAlpha"/>
      <feOffset dy="16"/>
      <feGaussianBlur stdDeviation="20"/>
      <feComposite in2="hardAlpha" operator="out"/>
      <feColorMatrix type="matrix" values="0 0 0 0 0 0 0 0 0 0 0 0 0 0 0 0 0 0 .42 0"/>
      <feBlend mode="normal" in2="BackgroundImageFix" result="effect1_dropShadow"/>
      <feBlend mode="normal" in="SourceGraphic" in2="effect1_dropShadow" result="shape"/>
    </filter>
  </defs>
</svg>
