<svg width="96" height="96" viewBox="0 0 96 96" fill="none" xmlns="http://www.w3.org/2000/svg">
  <rect width="96" height="96" rx="24" fill="#5865F2"/>
  <path d="M65.65 30.36C61.98 28.67 58.08 27.44 54.01 26.74C53.5 27.65 52.91 28.87 52.51 29.84C48.18 29.2 43.88 29.2 39.64 29.84C39.23 28.87 38.62 27.65 38.11 26.74C34.04 27.44 30.13 28.68 26.46 30.38C19.09 41.31 17.09 51.98 18.09 62.5C23.01 66.14 27.78 68.35 32.47 69.79C33.63 68.21 34.66 66.52 35.53 64.74C33.84 64.1 32.22 63.31 30.69 62.39C31.1 62.09 31.5 61.78 31.89 61.46C41.24 65.78 51.41 65.78 60.64 61.46C61.03 61.78 61.43 62.09 61.84 62.39C60.3 63.32 58.68 64.1 56.99 64.74C57.87 66.52 58.89 68.21 60.05 69.79C64.75 68.35 69.52 66.14 74.44 62.5C75.61 50.32 72.45 39.75 65.65 30.36ZM36.92 56.04C34.11 56.04 31.8 53.46 31.8 50.29C31.8 47.12 34.06 44.54 36.92 44.54C39.8 44.54 42.1 47.14 42.05 50.29C42.05 53.46 39.78 56.04 36.92 56.04ZM59.18 56.04C56.37 56.04 54.06 53.46 54.06 50.29C54.06 47.12 56.32 44.54 59.18 44.54C62.06 44.54 64.36 47.14 64.31 50.29C64.31 53.46 62.06 56.04 59.18 56.04Z" fill="white"/>
</svg>
