<svg width="960" height="560" viewBox="0 0 960 560" fill="none" xmlns="http://www.w3.org/2000/svg">
  <rect width="960" height="560" rx="34" fill="#0B0D10"/>
  <rect width="960" height="560" rx="34" fill="url(#paint0_linear)"/>
  <circle cx="730" cy="168" r="118" fill="#FFD166" fill-opacity=".18"/>
  <circle cx="730" cy="168" r="82" fill="#FFD166" fill-opacity=".12"/>
  <path d="M0 420C150 360 275 386 398 426C536 471 678 510 960 398V560H0V420Z" fill="#111827" fill-opacity=".72"/>
  <path d="M137 412H820" stroke="white" stroke-opacity=".1" stroke-width="3" stroke-linecap="round"/>
  <path d="M173 452H540" stroke="white" stroke-opacity=".08" stroke-width="3" stroke-linecap="round"/>
  <g filter="url(#shadow)">
    <rect x="118" y="98" width="382" height="270" rx="24" fill="#151922" stroke="white" stroke-opacity=".12"/>
    <text x="152" y="154" fill="#FFFFFF" font-family="Poppins, Arial, sans-serif" font-size="28" font-weight="900">SAITAMA ROUTINE</text>
    <text x="152" y="210" fill="#FFD166" font-family="Consolas, monospace" font-size="26" font-weight="700">100 push-ups</text>
    <text x="152" y="256" fill="#8CC8FF" font-family="Consolas, monospace" font-size="26" font-weight="700">100 sit-ups</text>
    <text x="152" y="302" fill="#72E6AC" font-family="Consolas, monospace" font-size="26" font-weight="700">100 squats</text>
    <text x="152" y="348" fill="#FF8A5B" font-family="Consolas, monospace" font-size="26" font-weight="700">10 km run</text>
  </g>
  <g filter="url(#shadow)">
    <path d="M655 162C696 162 730 196 730 238C730 280 696 314 655 314C613 314 579 280 579 238C579 196 613 162 655 162Z" fill="#F7D7A6"/>
    <path d="M565 436C573 370 607 330 655 330C703 330 736 370 746 436H565Z" fill="#F4F4F5"/>
    <path d="M599 438C616 468 695 468 712 438" stroke="#D4D4D8" stroke-width="18" stroke-linecap="round"/>
    <path d="M590 232H720" stroke="#111827" stroke-width="12" stroke-linecap="round"/>
    <circle cx="625" cy="214" r="7" fill="#111827"/>
    <circle cx="685" cy="214" r="7" fill="#111827"/>
    <path d="M632 262C646 274 666 274 680 262" stroke="#111827" stroke-width="8" stroke-linecap="round"/>
  </g>
  <text x="88" y="504" fill="#FFFFFF" font-family="Poppins, Arial, sans-serif" font-size="42" font-weight="900">Train like Saitama, progress like a human</text>
  <defs>
    <filter id="shadow" x="80" y="70" width="704" height="436" filterUnits="userSpaceOnUse" color-interpolation-filters="sRGB">
      <feFlood flood-opacity="0" result="BackgroundImageFix"/>
      <feColorMatrix in="SourceAlpha" type="matrix" values="0 0 0 0 0 0 0 0 0 0 0 0 0 0 0 0 0 0 127 0" result="hardAlpha"/>
      <feOffset dy="18"/>
      <feGaussianBlur stdDeviation="20"/>
      <feComposite in2="hardAlpha" operator="out"/>
      <feColorMatrix type="matrix" values="0 0 0 0 0 0 0 0 0 0 0 0 0 0 0 0 0 0 .38 0"/>
      <feBlend mode="normal" in2="BackgroundImageFix" result="effect1_dropShadow"/>
      <feBlend mode="normal" in="SourceGraphic" in2="effect1_dropShadow" result="shape"/>
    </filter>
    <linearGradient id="paint0_linear" x1="0" y1="0" x2="960" y2="560" gradientUnits="userSpaceOnUse">
      <stop stop-color="#251314"/>
      <stop offset=".45" stop-color="#101826"/>
      <stop offset="1" stop-color="#2A1A0A"/>
    </linearGradient>
  </defs>
</svg>
